<?xml version="1.0" encoding="utf-8"?>
<!-- Generator: Adobe Illustrator 23.0.1, SVG Export Plug-In . SVG Version: 6.00 Build 0)  -->
<svg version="1.1" id="Layer_1" xmlns="http://www.w3.org/2000/svg" xmlns:xlink="http://www.w3.org/1999/xlink" x="0px" y="0px"
	 width="281px" height="100px" viewBox="0 0 281 100" style="enable-background:new 0 0 281 100;" xml:space="preserve">
<style type="text/css">
	.st0{fill:#0079A0;}
	.st1{display:none;}
	.st2{display:inline;fill:#333F48;}
	.st3{display:inline;fill:#0079A0;}
	.st4{fill:#FFFFFF;}
	.st5{font-family:'BigCaslon-Medium';}
	.st6{font-size:57.8546px;}
	.st7{font-family:'Cordale-Regular';}
	.st8{font-size:32.1512px;}
	.st9{font-family:'Aquawax-Medium';}
</style>
<g>
	<g>
		<path class="st0" d="M115.15,26.63c-12.22,1.4-23.67,3.82-33.95,7.08c10.87-1.28,22.27-2.21,34.05-2.75
			c1.05,9.28,7.36,16.99,15.86,20.08v-5.97c-5.5-2.71-9.49-8.03-10.35-14.34c3.42-0.12,6.87-0.22,10.35-0.27v-5.04
			c-3.51,0.13-6.98,0.35-10.39,0.65c0.74-6.48,4.77-11.97,10.39-14.73V5.36C122.25,8.58,115.78,16.82,115.15,26.63z M163.62,26.59
			c-0.83-12.65-11.38-22.68-24.23-22.68h-2.75v48.58h2.75c12.47,0,22.77-9.45,24.14-21.56c11.89,0.54,23.39,1.48,34.36,2.78
			C187.51,30.41,175.96,27.98,163.62,26.59z M142.13,46.79v-16.4c5.35,0.03,10.65,0.13,15.87,0.31
			C156.9,38.98,150.38,45.57,142.13,46.79z M142.13,25.27V9.61c8.36,1.23,14.94,7.99,15.91,16.43
			C152.86,25.59,147.55,25.33,142.13,25.27z"/>
	</g>
</g>
<g class="st1">
	<path class="st2" d="M3.95,97.5c-2.18,0-4.14-0.37-5.88-1.11c-1.74-0.74-3.21-1.81-4.41-3.23c-1.2-1.42-2.12-3.15-2.76-5.2
		c-0.64-2.05-0.96-4.39-0.96-7c0-5.64,1.16-9.88,3.48-12.74c2.32-2.85,5.62-4.27,9.91-4.27c1.95,0,3.69,0.3,5.25,0.91
		c1.55,0.61,2.87,1.52,3.95,2.73c1.08,1.21,1.91,2.71,2.49,4.51c0.58,1.8,0.87,3.89,0.87,6.26v2.77H-4.21
		c0.04,2.2,0.26,4.09,0.66,5.67s0.98,2.88,1.74,3.91c0.76,1.02,1.69,1.77,2.79,2.25c1.1,0.48,2.37,0.72,3.8,0.72
		c1.04,0,2.01-0.12,2.9-0.35c0.89-0.24,1.71-0.55,2.43-0.94c0.73-0.39,1.37-0.84,1.93-1.34s1.02-1.03,1.37-1.58
		c0.27,0.12,0.54,0.36,0.78,0.74c0.25,0.37,0.37,0.82,0.37,1.33c0,0.61-0.22,1.26-0.65,1.96c-0.43,0.7-1.09,1.34-1.98,1.93
		c-0.88,0.59-1.99,1.08-3.32,1.47S5.74,97.5,3.95,97.5z M3.21,67.19c-2.24,0-3.96,0.91-5.17,2.73c-1.21,1.82-1.92,4.48-2.14,7.97
		H9.79c0-1.59-0.12-3.05-0.35-4.36c-0.24-1.32-0.61-2.45-1.12-3.39s-1.18-1.67-2.02-2.18C5.46,67.45,4.43,67.19,3.21,67.19z"/>
	<path class="st2" d="M43.85,90.27c0,0.88,0.13,1.6,0.4,2.14c0.27,0.54,0.62,0.96,1.08,1.25c0.45,0.29,0.98,0.49,1.58,0.58
		c0.6,0.09,1.23,0.13,1.9,0.13h0.5v2.54H39.08l-0.65-5.42h-0.24c-0.45,0.92-0.97,1.75-1.55,2.49c-0.58,0.74-1.24,1.37-1.99,1.89
		c-0.75,0.52-1.59,0.92-2.54,1.21c-0.94,0.29-2,0.43-3.18,0.43c-1.99,0-3.74-0.33-5.28-0.99c-1.53-0.66-2.82-1.67-3.86-3.04
		c-1.04-1.37-1.83-3.1-2.36-5.2c-0.53-2.1-0.8-4.6-0.8-7.49c0-2.91,0.27-5.42,0.8-7.55c0.53-2.12,1.32-3.87,2.36-5.25
		c1.04-1.38,2.33-2.39,3.86-3.05c1.53-0.66,3.29-0.99,5.28-0.99c1.16,0,2.21,0.13,3.15,0.38c0.94,0.25,1.79,0.62,2.55,1.09
		c0.76,0.47,1.43,1.03,2.02,1.68c0.59,0.65,1.1,1.37,1.53,2.15h0.35c-0.06-0.98-0.12-1.91-0.18-2.77c-0.04-0.75-0.08-1.49-0.12-2.23
		c-0.04-0.74-0.06-1.28-0.06-1.64v-4.95c0-0.88-0.13-1.6-0.4-2.14c-0.27-0.54-0.62-0.96-1.08-1.25c-0.45-0.29-0.98-0.49-1.58-0.58
		c-0.6-0.09-1.23-0.13-1.9-0.13h-0.5v-2.54h11.11V90.27z M29.97,93.63c1.57,0,2.88-0.26,3.94-0.78c1.05-0.52,1.9-1.31,2.54-2.37
		c0.64-1.06,1.09-2.4,1.36-4.01c0.27-1.61,0.4-3.51,0.4-5.69c0-2.1-0.13-3.96-0.4-5.57c-0.27-1.61-0.72-2.96-1.36-4.05
		c-0.64-1.09-1.49-1.92-2.55-2.49c-1.06-0.57-2.39-0.85-3.98-0.85c-1.32,0-2.45,0.29-3.39,0.85c-0.94,0.57-1.71,1.41-2.31,2.51
		c-0.6,1.1-1.04,2.46-1.31,4.08c-0.28,1.62-0.41,3.48-0.41,5.59c0,4.28,0.58,7.49,1.74,9.61C25.38,92.57,27.3,93.63,29.97,93.63z"/>
	<path class="st2" d="M62.68,94.37v2.54H46.43v-2.54h0.8c0.69,0,1.32-0.05,1.89-0.15c0.57-0.1,1.06-0.3,1.47-0.6
		c0.41-0.3,0.73-0.74,0.96-1.31c0.23-0.57,0.34-1.33,0.34-2.27V71.2c0-0.88-0.12-1.6-0.35-2.14c-0.24-0.54-0.56-0.96-0.97-1.25
		s-0.9-0.49-1.47-0.59c-0.57-0.1-1.19-0.15-1.86-0.15h-0.18v-2.54h9.46l0.8,4.89h0.29c0.61-1.12,1.25-2.04,1.92-2.76
		c0.67-0.72,1.38-1.28,2.14-1.68c0.76-0.4,1.55-0.68,2.39-0.83c0.83-0.15,1.72-0.22,2.67-0.22c0.98,0,1.92,0.1,2.8,0.29
		c0.88,0.2,1.71,0.51,2.46,0.94c0.76,0.43,1.43,1,2.03,1.7c0.6,0.7,1.09,1.55,1.46,2.55h0.5c0.61-1.12,1.27-2.04,1.98-2.76
		c0.71-0.72,1.46-1.28,2.25-1.68c0.8-0.4,1.63-0.68,2.51-0.83c0.87-0.15,1.78-0.22,2.73-0.22c1.53,0,2.91,0.23,4.13,0.69
		c1.22,0.46,2.25,1.17,3.1,2.12c0.84,0.95,1.49,2.18,1.95,3.67c0.45,1.49,0.68,3.27,0.68,5.34v14.27c0,0.94,0.12,1.7,0.35,2.27
		s0.56,1.01,0.97,1.31c0.41,0.3,0.9,0.51,1.47,0.6c0.57,0.1,1.19,0.15,1.86,0.15h0.18v2.54h-10.5V76.06c0-1.32-0.11-2.49-0.34-3.51
		c-0.23-1.02-0.59-1.89-1.09-2.59c-0.5-0.71-1.15-1.24-1.96-1.61c-0.81-0.36-1.79-0.54-2.95-0.54c-1.26,0-2.31,0.24-3.17,0.72
		c-0.85,0.48-1.55,1.14-2.08,1.96s-0.91,1.78-1.14,2.86s-0.34,2.23-0.34,3.45v13.24c0,0.94,0.12,1.7,0.35,2.27s0.56,1.01,0.97,1.31
		s0.9,0.51,1.47,0.6c0.57,0.1,1.19,0.15,1.86,0.15h0.18v2.54H70.9V76.06c0-1.32-0.11-2.49-0.34-3.51c-0.23-1.02-0.59-1.89-1.09-2.59
		c-0.5-0.71-1.15-1.24-1.96-1.61c-0.81-0.36-1.79-0.54-2.95-0.54c-1.32,0-2.42,0.26-3.32,0.8c-0.89,0.53-1.62,1.25-2.17,2.15
		c-0.55,0.9-0.94,1.95-1.18,3.12c-0.24,1.18-0.35,2.42-0.35,3.71v12.74c0,0.88,0.13,1.6,0.4,2.14s0.62,0.95,1.08,1.22
		c0.45,0.28,0.98,0.46,1.58,0.54c0.6,0.09,1.23,0.13,1.9,0.13H62.68z"/>
	<path class="st2" d="M112.37,66.95c-1.16,0-2.1,0.16-2.82,0.49c-0.72,0.32-1.28,0.78-1.68,1.37c-0.4,0.59-0.67,1.29-0.81,2.09
		c-0.14,0.81-0.21,1.68-0.21,2.62c-1.67,0-2.94-0.28-3.82-0.85s-1.31-1.55-1.31-2.95c0-1.04,0.28-1.93,0.85-2.65
		c0.57-0.73,1.35-1.32,2.34-1.78c0.99-0.46,2.15-0.8,3.46-1.02c1.32-0.22,2.72-0.32,4.22-0.32c1.85,0,3.46,0.18,4.83,0.55
		c1.38,0.36,2.52,0.96,3.45,1.78c0.92,0.83,1.62,1.9,2.08,3.23c0.46,1.33,0.69,2.95,0.69,4.88v15.65c0,0.85,0.07,1.54,0.21,2.09
		c0.14,0.55,0.35,0.99,0.65,1.33s0.68,0.57,1.16,0.71c0.48,0.14,1.06,0.21,1.72,0.21h0.18v2.54h-8.17l-0.94-5.19h-0.5
		c-0.63,0.84-1.24,1.62-1.83,2.33c-0.59,0.71-1.24,1.32-1.95,1.83c-0.71,0.51-1.51,0.91-2.4,1.19c-0.89,0.29-1.97,0.43-3.23,0.43
		c-1.34,0-2.58-0.19-3.73-0.58c-1.15-0.38-2.14-0.97-2.98-1.77s-1.49-1.8-1.96-3.01c-0.47-1.21-0.71-2.64-0.71-4.29
		c0-3.2,1.14-5.58,3.42-7.13c2.28-1.55,5.73-2.4,10.35-2.54l5.01-0.18v-3.63c0-1.08-0.06-2.08-0.18-2.99
		c-0.12-0.91-0.37-1.7-0.77-2.36c-0.39-0.66-0.96-1.17-1.69-1.53C114.59,67.14,113.61,66.95,112.37,66.95z M105.06,88.15
		c0,1.89,0.4,3.3,1.19,4.23c0.8,0.93,2.03,1.4,3.7,1.4c1.22,0,2.32-0.2,3.32-0.59c0.99-0.39,1.84-0.95,2.54-1.68
		c0.7-0.73,1.23-1.61,1.61-2.65c0.37-1.04,0.56-2.2,0.56-3.48v-4.89l-3.86,0.18c-1.71,0.08-3.14,0.29-4.29,0.63
		c-1.15,0.34-2.08,0.83-2.79,1.44s-1.21,1.38-1.52,2.28C105.21,85.93,105.06,86.97,105.06,88.15z"/>
	<path class="st2" d="M142.48,94.37v2.54h-16.24v-2.54h0.5c0.69,0,1.33-0.05,1.93-0.15s1.12-0.3,1.56-0.6
		c0.44-0.3,0.8-0.74,1.06-1.31c0.27-0.57,0.4-1.33,0.4-2.27V71.2c0-0.88-0.13-1.6-0.4-2.14c-0.27-0.54-0.62-0.96-1.08-1.25
		s-0.98-0.49-1.58-0.59c-0.6-0.1-1.23-0.15-1.9-0.15h-0.18v-2.54h9.76l0.8,4.89h0.29c0.63-1.12,1.29-2.04,1.99-2.76
		c0.7-0.72,1.43-1.28,2.21-1.68c0.78-0.4,1.6-0.68,2.48-0.83c0.88-0.15,1.79-0.22,2.76-0.22c1.59,0,3.01,0.23,4.26,0.69
		s2.31,1.17,3.18,2.12c0.88,0.95,1.54,2.18,2.01,3.67c0.46,1.49,0.69,3.27,0.69,5.34v14.27c0,0.94,0.11,1.7,0.34,2.27
		s0.54,1.01,0.96,1.31c0.41,0.3,0.9,0.51,1.47,0.6s1.19,0.15,1.86,0.15h0.21v2.54H151.3V76.06c0-1.32-0.12-2.49-0.35-3.51
		c-0.23-1.02-0.61-1.89-1.13-2.59c-0.52-0.71-1.2-1.24-2.05-1.61c-0.85-0.36-1.88-0.54-3.1-0.54c-1.38,0-2.53,0.26-3.46,0.8
		c-0.93,0.53-1.69,1.25-2.26,2.15c-0.57,0.9-0.98,1.95-1.22,3.12c-0.25,1.18-0.37,2.42-0.37,3.71v12.74c0,0.88,0.13,1.6,0.4,2.14
		c0.26,0.54,0.62,0.95,1.08,1.22c0.45,0.28,0.98,0.46,1.58,0.54s1.23,0.13,1.9,0.13H142.48z"/>
	<path class="st2" d="M170.56,97.5c-1.51,0-2.88-0.13-4.11-0.4c-1.23-0.26-2.28-0.67-3.14-1.21c-0.87-0.54-1.53-1.21-2-2
		s-0.71-1.72-0.71-2.79c0-0.81,0.13-1.48,0.4-2.02c0.26-0.54,0.59-0.97,0.97-1.28s0.8-0.54,1.24-0.66s0.84-0.19,1.19-0.19
		c0,1.06,0.11,2.05,0.33,2.98c0.22,0.92,0.58,1.73,1.09,2.43c0.51,0.7,1.18,1.25,2.02,1.65c0.84,0.4,1.86,0.6,3.08,0.6
		c1.08,0,2.03-0.13,2.86-0.4s1.52-0.64,2.08-1.12c0.56-0.48,0.99-1.06,1.28-1.74c0.29-0.68,0.44-1.42,0.44-2.23
		c0-0.75-0.11-1.39-0.34-1.93c-0.23-0.54-0.62-1.05-1.18-1.52c-0.56-0.47-1.32-0.95-2.29-1.44c-0.96-0.49-2.17-1.05-3.63-1.68
		c-1.55-0.69-2.9-1.35-4.05-1.99c-1.15-0.64-2.1-1.33-2.84-2.08s-1.31-1.6-1.68-2.55c-0.37-0.95-0.56-2.09-0.56-3.4
		c0-1.38,0.27-2.59,0.81-3.66c0.54-1.06,1.31-1.95,2.31-2.67c1-0.72,2.2-1.26,3.6-1.64c1.39-0.37,2.95-0.56,4.66-0.56
		c1.43,0,2.7,0.15,3.8,0.44c1.1,0.29,2.02,0.69,2.77,1.19s1.31,1.09,1.68,1.77c0.37,0.68,0.56,1.39,0.56,2.14
		c0,1.1-0.38,1.98-1.13,2.64s-1.83,0.99-3.23,0.99c0-2.02-0.42-3.6-1.25-4.72c-0.84-1.12-2.15-1.68-3.94-1.68
		c-1.02,0-1.9,0.12-2.62,0.35c-0.73,0.24-1.32,0.57-1.78,1c-0.46,0.43-0.8,0.94-1.02,1.53c-0.22,0.59-0.32,1.24-0.32,1.95
		c0,0.77,0.14,1.43,0.41,1.99c0.27,0.56,0.71,1.08,1.31,1.55s1.38,0.93,2.33,1.37c0.95,0.44,2.1,0.94,3.43,1.49
		c1.59,0.67,2.96,1.33,4.1,1.97c1.14,0.65,2.08,1.36,2.82,2.12c0.74,0.77,1.28,1.63,1.64,2.59c0.35,0.96,0.53,2.07,0.53,3.33
		c0,1.57-0.29,2.95-0.86,4.13c-0.57,1.18-1.38,2.17-2.42,2.96c-1.04,0.8-2.29,1.39-3.76,1.78C173.98,97.3,172.35,97.5,170.56,97.5z"
		/>
	<path class="st3" d="M217.09,96.91l-3.98-4.22c-0.58,0.66-1.21,1.27-1.91,1.84c-0.7,0.57-1.46,1.07-2.31,1.49
		c-0.84,0.42-1.78,0.75-2.8,1c-1.02,0.24-2.14,0.36-3.36,0.36c-1.92,0-3.6-0.24-5.03-0.73s-2.62-1.17-3.56-2.05
		c-0.95-0.88-1.65-1.94-2.12-3.17s-0.7-2.61-0.7-4.12c0-1.36,0.18-2.54,0.55-3.55c0.37-1.01,0.88-1.89,1.55-2.66
		c0.66-0.77,1.47-1.44,2.41-2.02c0.95-0.58,2-1.11,3.15-1.59c-0.61-0.72-1.14-1.41-1.61-2.07s-0.84-1.32-1.15-1.98
		s-0.54-1.33-0.69-2.02c-0.16-0.69-0.23-1.42-0.23-2.2c0-1.06,0.17-2.02,0.52-2.88s0.88-1.6,1.62-2.23c0.73-0.62,1.68-1.1,2.82-1.44
		c1.15-0.33,2.52-0.5,4.11-0.5c1.53,0,2.84,0.18,3.91,0.54c1.08,0.36,1.96,0.85,2.64,1.48c0.68,0.62,1.17,1.35,1.48,2.18
		s0.46,1.7,0.46,2.62c0,1.03-0.15,1.94-0.45,2.74s-0.77,1.53-1.42,2.2s-1.48,1.31-2.51,1.91c-1.02,0.6-2.27,1.21-3.74,1.84
		l8.74,9.26c0.22-0.72,0.4-1.45,0.54-2.19s0.25-1.47,0.34-2.18s0.14-1.41,0.18-2.09s0.05-1.31,0.05-1.89v-1.87h8.65v2.01h-0.45
		c-0.53,0-1.05,0.03-1.57,0.09c-0.52,0.06-1,0.21-1.44,0.43c-0.45,0.23-0.84,0.55-1.2,0.98s-0.63,1.01-0.83,1.75
		c-0.28,1.03-0.61,2.15-0.97,3.35c-0.37,1.2-0.82,2.41-1.37,3.61l4.45,4.76c0.23,0.23,0.48,0.43,0.73,0.59
		c0.25,0.16,0.54,0.28,0.88,0.38s0.73,0.16,1.2,0.19c0.46,0.03,1.02,0.05,1.68,0.05h0.42v2.02H217.09z M203.17,94.7
		c0.94,0,1.81-0.1,2.61-0.29c0.8-0.2,1.54-0.46,2.21-0.81c0.67-0.34,1.29-0.75,1.85-1.23s1.07-1,1.52-1.56l-10.62-11.37
		c-0.74,0.41-1.39,0.86-1.98,1.35s-1.09,1.06-1.5,1.71s-0.73,1.38-0.95,2.19S196,86.43,196,87.46c0,1.17,0.17,2.21,0.52,3.11
		s0.83,1.66,1.46,2.27s1.39,1.08,2.26,1.39C201.12,94.55,202.09,94.7,203.17,94.7z M208.63,69.02c0-0.64-0.08-1.23-0.23-1.78
		c-0.16-0.55-0.41-1.02-0.76-1.42s-0.81-0.71-1.38-0.95s-1.26-0.35-2.07-0.35c-1.42,0-2.52,0.41-3.28,1.24
		c-0.77,0.83-1.15,1.93-1.15,3.3c0,0.61,0.06,1.18,0.19,1.71c0.12,0.53,0.32,1.06,0.6,1.58c0.27,0.52,0.62,1.07,1.04,1.63
		c0.42,0.56,0.94,1.18,1.55,1.85c0.94-0.41,1.75-0.84,2.45-1.29s1.27-0.95,1.72-1.49s0.79-1.14,1.01-1.79
		C208.52,70.61,208.63,69.86,208.63,69.02z"/>
	<path class="st2" d="M245.84,97.5c-2,0-3.85-0.31-5.54-0.93c-1.69-0.62-3.15-1.6-4.36-2.93c-1.22-1.34-2.17-3.05-2.84-5.14
		c-0.68-2.09-1.02-4.62-1.02-7.59c0-3.22,0.34-5.92,1.02-8.09c0.68-2.17,1.62-3.92,2.83-5.23c1.21-1.32,2.63-2.25,4.27-2.8
		c1.64-0.55,3.42-0.83,5.32-0.83c1.26,0,2.51,0.12,3.76,0.37c1.25,0.25,2.37,0.62,3.38,1.14c1,0.51,1.82,1.15,2.45,1.93
		s0.94,1.69,0.94,2.73c0,1.4-0.45,2.38-1.36,2.95c-0.9,0.57-2.25,0.86-4.04,0.86c0-0.94-0.08-1.84-0.24-2.68
		c-0.16-0.84-0.43-1.59-0.81-2.23c-0.38-0.64-0.9-1.14-1.56-1.5c-0.66-0.36-1.5-0.55-2.52-0.55c-1.16,0-2.21,0.22-3.14,0.65
		c-0.93,0.43-1.74,1.18-2.4,2.24c-0.67,1.06-1.18,2.49-1.53,4.27s-0.53,4.03-0.53,6.72c0,4.28,0.71,7.48,2.14,9.58
		c1.42,2.1,3.76,3.15,7,3.15c1.87,0,3.5-0.39,4.89-1.18c1.39-0.79,2.44-1.8,3.12-3.04c0.29,0.24,0.54,0.55,0.74,0.94
		c0.2,0.39,0.29,0.87,0.29,1.42c0,0.69-0.22,1.38-0.65,2.06c-0.43,0.69-1.08,1.31-1.93,1.86c-0.86,0.55-1.92,1-3.2,1.34
		C249.04,97.32,247.55,97.5,245.84,97.5z"/>
	<path class="st2" d="M284.36,80.66c0,5.68-1.2,9.91-3.61,12.68c-2.41,2.77-5.93,4.16-10.57,4.16c-2.18,0-4.14-0.34-5.87-1.03
		s-3.2-1.73-4.41-3.12c-1.21-1.39-2.13-3.15-2.77-5.26s-0.96-4.58-0.96-7.41c0-5.64,1.19-9.84,3.58-12.59
		c2.39-2.75,5.92-4.13,10.6-4.13c2.18,0,4.14,0.34,5.87,1.02c1.73,0.68,3.2,1.71,4.41,3.09s2.13,3.12,2.77,5.22
		C284.04,75.37,284.36,77.83,284.36,80.66z M262.01,80.66c0,2.24,0.15,4.21,0.44,5.92s0.77,3.14,1.43,4.29
		c0.66,1.15,1.51,2.02,2.57,2.61c1.05,0.59,2.33,0.88,3.85,0.88s2.79-0.29,3.83-0.88c1.04-0.59,1.89-1.46,2.54-2.61
		c0.65-1.15,1.12-2.58,1.4-4.29c0.28-1.71,0.43-3.68,0.43-5.92c0-2.24-0.15-4.21-0.44-5.9c-0.29-1.69-0.77-3.1-1.42-4.23
		c-0.65-1.13-1.5-1.98-2.55-2.55s-2.33-0.86-3.85-0.86c-1.51,0-2.79,0.29-3.83,0.86s-1.89,1.42-2.54,2.55
		c-0.65,1.13-1.12,2.54-1.42,4.23S262.01,78.42,262.01,80.66z"/>
</g>
<g id="Layer_2">
	<g>
		<g>
			<text transform="matrix(1 0 0 1 4.2218 91.8732)" class="st4 st5 st6">edmans</text>
			<text transform="matrix(1 0 0 1 186.4218 91.8732)" class="st4 st5 st6">   </text>
			<g>
				<text transform="matrix(1 0 0 1 222.9218 91.8732)" class="st4 st5 st6">co</text>
			</g>
		</g>
		<text transform="matrix(1 0 0 1 192.0245 91.3742)" class="st0 st7 st8">&amp;</text>
		<text transform="matrix(1 0 0 1 217.0245 91.3742)" class="st0 st9 st8"> </text>
	</g>
</g>
</svg>
