<?xml version="1.0" encoding="utf-8"?>
<!-- Generator: Adobe Illustrator 23.0.2, SVG Export Plug-In . SVG Version: 6.00 Build 0)  -->
<svg version="1.1" id="Layer_1" xmlns="http://www.w3.org/2000/svg" xmlns:xlink="http://www.w3.org/1999/xlink" x="0px" y="0px"
	 width="280px" height="100px" viewBox="0 0 280 100" style="enable-background:new 0 0 280 100;" xml:space="preserve">
<style type="text/css">
	.st0{fill:#0079A0;}
	.st1{display:none;}
	.st2{display:inline;fill:#333F48;}
	.st3{display:inline;fill:#0079A0;}
	.st4{enable-background:new    ;}
	.st5{fill:#333F48;}
</style>
<g>
	<g>
		<path class="st0" d="M114.2,25.1c-12.2,1.4-23.7,3.8-34,7.1c10.9-1.3,22.3-2.2,34.1-2.8c1.1,9.3,7.4,17,15.9,20.1v-6
			c-5.5-2.7-9.5-8-10.3-14.3c3.4-0.1,6.9-0.2,10.3-0.3v-5c-3.5,0.1-7,0.4-10.4,0.6c0.7-6.5,4.8-12,10.4-14.7v-6
			C121.2,7.1,114.8,15.3,114.2,25.1z M162.6,25.1c-0.8-12.6-11.4-22.7-24.2-22.7h-2.8V51h2.8c12.5,0,22.8-9.5,24.1-21.6
			c11.9,0.5,23.4,1.5,34.4,2.8C186.5,28.9,175,26.5,162.6,25.1z M141.1,45.3V28.9c5.4,0,10.6,0.1,15.9,0.3
			C155.9,37.5,149.4,44.1,141.1,45.3z M141.1,23.8V8.1c8.4,1.2,14.9,8,15.9,16.4C151.9,24.1,146.6,23.8,141.1,23.8z"/>
	</g>
</g>
<g class="st1">
	<path class="st2" d="M4.4,97.5c-2.2,0-4.1-0.4-5.9-1.1s-3.2-1.8-4.4-3.2C-7.1,91.7-8.1,90-8.7,88c-0.6-2.1-1-4.4-1-7
		c0-5.6,1.2-9.9,3.5-12.7c2.3-2.9,5.6-4.3,9.9-4.3c2,0,3.7,0.3,5.3,0.9s2.9,1.5,3.9,2.7c1.1,1.2,1.9,2.7,2.5,4.5s0.9,3.9,0.9,6.3
		v2.8H-3.8c0,2.2,0.3,4.1,0.7,5.7s1,2.9,1.7,3.9c0.8,1,1.7,1.8,2.8,2.2s2.4,0.7,3.8,0.7c1,0,2-0.1,2.9-0.3c0.9-0.2,1.7-0.6,2.4-0.9
		c0.7-0.4,1.4-0.8,1.9-1.3s1-1,1.4-1.6c0.3,0.1,0.5,0.4,0.8,0.7c0.2,0.4,0.4,0.8,0.4,1.3c0,0.6-0.2,1.3-0.6,2
		c-0.4,0.7-1.1,1.3-2,1.9s-2,1.1-3.3,1.5S6.1,97.5,4.4,97.5z M3.6,67.2c-2.2,0-4,0.9-5.2,2.7s-1.9,4.5-2.1,8h13.9
		c0-1.6-0.1-3.1-0.4-4.4c-0.2-1.3-0.6-2.4-1.1-3.4s-1.2-1.7-2-2.2C5.9,67.4,4.8,67.2,3.6,67.2z"/>
	<path class="st2" d="M44.2,90.3c0,0.9,0.1,1.6,0.4,2.1s0.6,1,1.1,1.2c0.5,0.3,1,0.5,1.6,0.6s1.2,0.1,1.9,0.1h0.5v2.5H39.5l-0.7-5.4
		h-0.2c-0.5,0.9-1,1.8-1.5,2.5c-0.6,0.7-1.2,1.4-2,1.9s-1.6,0.9-2.5,1.2c-0.9,0.3-2,0.4-3.2,0.4c-2,0-3.7-0.3-5.3-1
		c-1.5-0.7-2.8-1.7-3.9-3c-1-1.4-1.8-3.1-2.4-5.2S17,83.6,17,80.7s0.3-5.4,0.8-7.6c0.5-2.1,1.3-3.9,2.4-5.2c1-1.4,2.3-2.4,3.9-3.1
		s3.3-1,5.3-1c1.2,0,2.2,0.1,3.2,0.4c0.9,0.2,1.8,0.6,2.5,1.1c0.8,0.5,1.4,1,2,1.7s1.1,1.4,1.5,2.2h0.3c-0.1-1-0.1-1.9-0.2-2.8
		c0-0.8-0.1-1.5-0.1-2.2c0-0.7-0.1-1.3-0.1-1.6v-5c0-0.9-0.1-1.6-0.4-2.1s-0.6-1-1.1-1.2c-0.5-0.3-1-0.5-1.6-0.6s-1.2-0.1-1.9-0.1
		H33V51h11.1L44.2,90.3L44.2,90.3z M30.4,93.6c1.6,0,2.9-0.3,3.9-0.8s1.9-1.3,2.5-2.4s1.1-2.4,1.4-4s0.4-3.5,0.4-5.7
		c0-2.1-0.1-4-0.4-5.6s-0.7-3-1.4-4.1c-0.6-1.1-1.5-1.9-2.5-2.5c-1.1-0.6-2.4-0.8-4-0.8c-1.3,0-2.5,0.3-3.4,0.8
		c-0.9,0.6-1.7,1.4-2.3,2.5s-1,2.5-1.3,4.1s-0.4,3.5-0.4,5.6c0,4.3,0.6,7.5,1.7,9.6C25.8,92.6,27.7,93.6,30.4,93.6z"/>
	<path class="st2" d="M63.1,94.4v2.5H46.8v-2.5h0.8c0.7,0,1.3-0.1,1.9-0.2s1.1-0.3,1.5-0.6c0.4-0.3,0.7-0.7,1-1.3s0.3-1.3,0.3-2.3
		V71.2c0-0.9-0.1-1.6-0.3-2.1s-0.6-1-1-1.2s-0.9-0.5-1.5-0.6s-1.2-0.2-1.9-0.2h-0.2v-2.5h9.5l0.8,4.9H58c0.6-1.1,1.2-2,1.9-2.8
		s1.4-1.3,2.1-1.7s1.5-0.7,2.4-0.8c0.8-0.2,1.7-0.2,2.7-0.2s1.9,0.1,2.8,0.3c0.9,0.2,1.7,0.5,2.5,0.9s1.4,1,2,1.7s1.1,1.6,1.5,2.6
		h0.5c0.6-1.1,1.3-2,2-2.8c0.7-0.7,1.5-1.3,2.2-1.7c0.8-0.4,1.6-0.7,2.5-0.8C84,64,84.9,64,85.8,64c1.5,0,2.9,0.2,4.1,0.7
		s2.2,1.2,3.1,2.1c0.8,0.9,1.5,2.2,1.9,3.7s0.7,3.3,0.7,5.3V90c0,0.9,0.1,1.7,0.3,2.3s0.6,1,1,1.3s0.9,0.5,1.5,0.6s1.2,0.2,1.9,0.2
		h0.2v2.5H90V76.1c0-1.3-0.1-2.5-0.3-3.5c-0.2-1-0.6-1.9-1.1-2.6s-1.2-1.2-2-1.6s-1.8-0.5-2.9-0.5c-1.3,0-2.3,0.2-3.2,0.7
		c-0.8,0.5-1.6,1.1-2.1,2s-0.9,1.8-1.1,2.9S77,75.7,77,76.9V90c0,0.9,0.1,1.7,0.3,2.3s0.6,1,1,1.3s0.9,0.5,1.5,0.6s1.2,0.2,1.9,0.2
		h0.2v2.5H71.3V76.1c0-1.3-0.1-2.5-0.3-3.5c-0.2-1-0.6-1.9-1.1-2.6s-1.2-1.2-2-1.6s-1.8-0.5-2.9-0.5c-1.3,0-2.4,0.3-3.3,0.8
		c-0.9,0.5-1.6,1.2-2.2,2.2s-0.9,1.9-1.2,3.1c-0.2,1.2-0.3,2.4-0.3,3.7v12.7c0,0.9,0.1,1.6,0.4,2.1s0.6,0.9,1.1,1.2
		c0.5,0.3,1,0.5,1.6,0.5c0.6,0.1,1.2,0.1,1.9,0.1L63.1,94.4L63.1,94.4z"/>
	<path class="st2" d="M112.8,66.9c-1.2,0-2.1,0.2-2.8,0.5c-0.7,0.3-1.3,0.8-1.7,1.4c-0.4,0.6-0.7,1.3-0.8,2.1
		c-0.1,0.8-0.2,1.7-0.2,2.6c-1.7,0-2.9-0.3-3.8-0.8s-1.3-1.6-1.3-2.9c0-1,0.3-1.9,0.8-2.7c0.6-0.7,1.3-1.3,2.3-1.8s2.2-0.8,3.5-1
		s2.7-0.3,4.2-0.3c1.8,0,3.5,0.2,4.8,0.6c1.4,0.4,2.5,1,3.4,1.8s1.6,1.9,2.1,3.2s0.7,2.9,0.7,4.9V90c0,0.8,0.1,1.5,0.2,2.1
		s0.3,1,0.7,1.3s0.7,0.6,1.2,0.7s1.1,0.2,1.7,0.2h0.2v2.5h-8.2l-0.9-5.2h-0.5c-0.6,0.8-1.2,1.6-1.8,2.3c-0.6,0.7-1.2,1.3-1.9,1.8
		s-1.5,0.9-2.4,1.2c-0.9,0.3-2,0.4-3.2,0.4c-1.3,0-2.6-0.2-3.7-0.6c-1.2-0.4-2.1-1-3-1.8s-1.5-1.8-2-3s-0.7-2.6-0.7-4.3
		c0-3.2,1.1-5.6,3.4-7.1c2.3-1.6,5.7-2.4,10.3-2.5l5-0.2v-3.6c0-1.1-0.1-2.1-0.2-3s-0.4-1.7-0.8-2.4c-0.4-0.7-1-1.2-1.7-1.5
		C115,67.1,114,66.9,112.8,66.9z M105.5,88.2c0,1.9,0.4,3.3,1.2,4.2c0.8,0.9,2,1.4,3.7,1.4c1.2,0,2.3-0.2,3.3-0.6s1.8-0.9,2.5-1.7
		c0.7-0.7,1.2-1.6,1.6-2.7c0.4-1,0.6-2.2,0.6-3.5v-4.9l-3.9,0.2c-1.7,0.1-3.1,0.3-4.3,0.6s-2.1,0.8-2.8,1.4s-1.2,1.4-1.5,2.3
		C105.6,85.9,105.5,87,105.5,88.2z"/>
	<path class="st2" d="M142.9,94.4v2.5h-16.2v-2.5h0.5c0.7,0,1.3-0.1,1.9-0.2s1.1-0.3,1.6-0.6c0.4-0.3,0.8-0.7,1.1-1.3
		c0.3-0.6,0.4-1.3,0.4-2.3V71.2c0-0.9-0.1-1.6-0.4-2.1c-0.3-0.5-0.6-1-1.1-1.2s-1-0.5-1.6-0.6s-1.2-0.2-1.9-0.2H127v-2.5h9.8
		l0.8,4.9h0.3c0.6-1.1,1.3-2,2-2.8c0.7-0.7,1.4-1.3,2.2-1.7c0.8-0.4,1.6-0.7,2.5-0.8c0.9-0.2,1.8-0.2,2.8-0.2c1.6,0,3,0.2,4.3,0.7
		s2.3,1.2,3.2,2.1s1.5,2.2,2,3.7s0.7,3.3,0.7,5.3V90c0,0.9,0.1,1.7,0.3,2.3s0.5,1,1,1.3c0.4,0.3,0.9,0.5,1.5,0.6s1.2,0.2,1.9,0.2
		h0.2v2.5H152V76.1c0-1.3-0.1-2.5-0.4-3.5c-0.2-1-0.6-1.9-1.1-2.6s-1.2-1.2-2.1-1.6c-0.9-0.4-1.9-0.5-3.1-0.5
		c-1.4,0-2.5,0.3-3.5,0.8c-0.9,0.5-1.7,1.2-2.3,2.2c-0.6,0.9-1,1.9-1.2,3.1s-0.4,2.4-0.4,3.7v12.7c0,0.9,0.1,1.6,0.4,2.1
		c0.3,0.5,0.6,0.9,1.1,1.2c0.4,0.3,1,0.5,1.6,0.5s1.2,0.1,1.9,0.1L142.9,94.4L142.9,94.4z"/>
	<path class="st2" d="M171,97.5c-1.5,0-2.9-0.1-4.1-0.4c-1.2-0.3-2.3-0.7-3.1-1.2c-0.9-0.5-1.5-1.2-2-2s-0.7-1.7-0.7-2.8
		c0-0.8,0.1-1.5,0.4-2c0.3-0.5,0.6-1,1-1.3s0.8-0.5,1.2-0.7s0.8-0.2,1.2-0.2c0,1.1,0.1,2.1,0.3,3s0.6,1.7,1.1,2.4s1.2,1.2,2,1.7
		c0.8,0.4,1.9,0.6,3.1,0.6c1.1,0,2-0.1,2.9-0.4s1.5-0.6,2.1-1.1s1-1.1,1.3-1.7s0.4-1.4,0.4-2.2c0-0.8-0.1-1.4-0.3-1.9
		s-0.6-1.1-1.2-1.5c-0.6-0.5-1.3-0.9-2.3-1.4s-2.2-1.1-3.6-1.7c-1.6-0.7-2.9-1.3-4.1-2c-1.1-0.6-2.1-1.3-2.8-2.1s-1.3-1.6-1.7-2.6
		c-0.4-0.9-0.6-2.1-0.6-3.4c0-1.4,0.3-2.6,0.8-3.7s1.3-1.9,2.3-2.7s2.2-1.3,3.6-1.6c1.4-0.4,2.9-0.6,4.7-0.6c1.4,0,2.7,0.1,3.8,0.4
		s2,0.7,2.8,1.2s1.3,1.1,1.7,1.8s0.6,1.4,0.6,2.1c0,1.1-0.4,2-1.1,2.6s-1.8,1-3.2,1c0-2-0.4-3.6-1.2-4.7s-2.1-1.7-3.9-1.7
		c-1,0-1.9,0.1-2.6,0.3c-0.7,0.2-1.3,0.6-1.8,1s-0.8,0.9-1,1.5s-0.3,1.2-0.3,1.9c0,0.8,0.1,1.4,0.4,2s0.7,1.1,1.3,1.6
		s1.4,0.9,2.3,1.4s2.1,0.9,3.4,1.5c1.6,0.7,3,1.3,4.1,2s2.1,1.4,2.8,2.1c0.7,0.8,1.3,1.6,1.6,2.6c0.4,1,0.5,2.1,0.5,3.3
		c0,1.6-0.3,2.9-0.9,4.1s-1.4,2.2-2.4,3s-2.3,1.4-3.8,1.8C174.4,97.3,172.8,97.5,171,97.5z"/>
	<path class="st3" d="M217.5,96.9l-4-4.2c-0.6,0.7-1.2,1.3-1.9,1.8s-1.5,1.1-2.3,1.5s-1.8,0.8-2.8,1s-2.1,0.4-3.4,0.4
		c-1.9,0-3.6-0.2-5-0.7s-2.6-1.2-3.6-2.1c-0.9-0.9-1.6-1.9-2.1-3.2s-0.7-2.6-0.7-4.1c0-1.4,0.2-2.5,0.6-3.6c0.4-1,0.9-1.9,1.6-2.7
		c0.7-0.8,1.5-1.4,2.4-2s2-1.1,3.1-1.6c-0.6-0.7-1.1-1.4-1.6-2.1s-0.8-1.3-1.1-2s-0.5-1.3-0.7-2s-0.2-1.4-0.2-2.2
		c0-1.1,0.2-2,0.5-2.9s0.9-1.6,1.6-2.2c0.7-0.6,1.7-1.1,2.8-1.4c1.1-0.3,2.5-0.5,4.1-0.5c1.5,0,2.8,0.2,3.9,0.5
		c1.1,0.4,2,0.8,2.6,1.5c0.7,0.6,1.2,1.3,1.5,2.2s0.5,1.7,0.5,2.6c0,1-0.1,1.9-0.4,2.7s-0.8,1.5-1.4,2.2s-1.5,1.3-2.5,1.9
		s-2.3,1.2-3.7,1.8l8.7,9.3c0.2-0.7,0.4-1.4,0.5-2.2s0.2-1.5,0.3-2.2s0.1-1.4,0.2-2.1s0.1-1.3,0.1-1.9v-1.9h8.6v2h-0.4
		c-0.5,0-1.1,0-1.6,0.1s-1,0.2-1.4,0.4c-0.4,0.2-0.8,0.6-1.2,1s-0.6,1-0.8,1.8c-0.3,1-0.6,2.2-1,3.3c-0.4,1.2-0.8,2.4-1.4,3.6
		l4.4,4.8c0.2,0.2,0.5,0.4,0.7,0.6s0.5,0.3,0.9,0.4s0.7,0.2,1.2,0.2s1,0.1,1.7,0.1h0.4v2L217.5,96.9L217.5,96.9z M203.6,94.7
		c0.9,0,1.8-0.1,2.6-0.3c0.8-0.2,1.5-0.5,2.2-0.8s1.3-0.8,1.9-1.2s1.1-1,1.5-1.6l-10.6-11.4c-0.7,0.4-1.4,0.9-2,1.3
		s-1.1,1.1-1.5,1.7s-0.7,1.4-0.9,2.2s-0.3,1.7-0.3,2.8c0,1.2,0.2,2.2,0.5,3.1s0.8,1.7,1.5,2.3s1.4,1.1,2.3,1.4
		C201.5,94.6,202.5,94.7,203.6,94.7z M209,69c0-0.6-0.1-1.2-0.2-1.8c-0.2-0.6-0.4-1-0.8-1.4s-0.8-0.7-1.4-0.9s-1.3-0.3-2.1-0.3
		c-1.4,0-2.5,0.4-3.3,1.2c-0.8,0.8-1.1,1.9-1.1,3.3c0,0.6,0.1,1.2,0.2,1.7c0.1,0.5,0.3,1.1,0.6,1.6s0.6,1.1,1,1.6s0.9,1.2,1.6,1.8
		c0.9-0.4,1.8-0.8,2.4-1.3s1.3-0.9,1.7-1.5s0.8-1.1,1-1.8C208.9,70.6,209,69.9,209,69z"/>
	<path class="st2" d="M246.2,97.5c-2,0-3.9-0.3-5.5-0.9c-1.7-0.6-3.1-1.6-4.4-2.9c-1.2-1.3-2.2-3.1-2.8-5.1c-0.7-2.1-1-4.6-1-7.6
		c0-3.2,0.3-5.9,1-8.1s1.6-3.9,2.8-5.2c1.2-1.3,2.6-2.2,4.3-2.8s3.4-0.8,5.3-0.8c1.3,0,2.5,0.1,3.8,0.4s2.4,0.6,3.4,1.1
		s1.8,1.2,2.4,1.9c0.6,0.7,0.9,1.7,0.9,2.7c0,1.4-0.4,2.4-1.4,2.9c-0.9,0.6-2.2,0.9-4,0.9c0-0.9-0.1-1.8-0.2-2.7
		c-0.2-0.8-0.4-1.6-0.8-2.2c-0.4-0.6-0.9-1.1-1.6-1.5s-1.5-0.6-2.5-0.6c-1.2,0-2.2,0.2-3.1,0.7s-1.7,1.2-2.4,2.2
		c-0.7,1.1-1.2,2.5-1.5,4.3s-0.5,4-0.5,6.7c0,4.3,0.7,7.5,2.1,9.6c1.4,2.1,3.8,3.2,7,3.2c1.9,0,3.5-0.4,4.9-1.2s2.4-1.8,3.1-3
		c0.3,0.2,0.5,0.6,0.7,0.9c0.2,0.3,0.3,0.9,0.3,1.4c0,0.7-0.2,1.4-0.6,2.1c-0.4,0.7-1.1,1.3-1.9,1.9c-0.9,0.6-1.9,1-3.2,1.3
		C249.4,97.3,248,97.5,246.2,97.5z"/>
	<path class="st2" d="M284.8,80.7c0,5.7-1.2,9.9-3.6,12.7c-2.4,2.8-5.9,4.2-10.6,4.2c-2.2,0-4.1-0.3-5.9-1s-3.2-1.7-4.4-3.1
		s-2.1-3.2-2.8-5.3s-1-4.6-1-7.4c0-5.6,1.2-9.8,3.6-12.6c2.4-2.8,5.9-4.1,10.6-4.1c2.2,0,4.1,0.3,5.9,1c1.7,0.7,3.2,1.7,4.4,3.1
		s2.1,3.1,2.8,5.2C284.4,75.4,284.8,77.8,284.8,80.7z M262.4,80.7c0,2.2,0.1,4.2,0.4,5.9s0.8,3.1,1.4,4.3s1.5,2,2.6,2.6
		c1,0.6,2.3,0.9,3.9,0.9s2.8-0.3,3.8-0.9s1.9-1.5,2.5-2.6s1.1-2.6,1.4-4.3s0.4-3.7,0.4-5.9s-0.1-4.2-0.4-5.9s-0.8-3.1-1.4-4.2
		s-1.5-2-2.5-2.6s-2.3-0.9-3.9-0.9c-1.5,0-2.8,0.3-3.8,0.9s-1.9,1.4-2.5,2.6c-0.6,1.1-1.1,2.5-1.4,4.2S262.4,78.4,262.4,80.7z"/>
</g>
<g>
	<g>
		<g>
			<g class="st4">
				<path class="st5" d="M27.2,84.5c-0.5,1.1-1.3,2-2.2,2.9c-0.9,0.9-2,1.6-3.3,2.2c-1.3,0.6-2.7,0.9-4.3,0.9c-2,0-3.8-0.4-5.4-1.1
					s-3-1.8-4.1-3.1c-1.1-1.3-2-2.9-2.6-4.7c-0.6-1.8-0.9-3.7-0.9-5.7c0-1.6,0.3-3.2,0.9-4.8c0.6-1.6,1.4-3,2.5-4.3
					c1.1-1.3,2.4-2.3,3.9-3.1c1.5-0.8,3.2-1.2,5.1-1.2c1.5,0,2.9,0.2,4.3,0.6s2.5,1,3.5,1.8c1,0.8,1.8,1.8,2.4,3
					c0.6,1.2,1,2.6,1.1,4.2H9.2c0,0.3,0,0.7-0.1,1.1c0,0.4-0.1,0.8-0.1,1.2c0,1.6,0.2,3.2,0.7,4.7c0.5,1.5,1.1,2.8,2,3.9
					c0.9,1.1,2,2,3.4,2.7c1.3,0.7,2.9,1,4.7,1c1.9,0,3.6-0.5,5.1-1.5c1.4-1,2.4-2.2,2.9-3.6l0.5,0.1C28.1,82.4,27.7,83.4,27.2,84.5z
					 M20.6,65c-1-1-2.3-1.5-4-1.5c-1.1,0-2.1,0.3-2.9,1c-0.9,0.6-1.6,1.4-2.3,2.2c-0.6,0.8-1.1,1.7-1.5,2.6c-0.3,0.9-0.6,1.5-0.6,2
					c0.9,0,1.7,0,2.4,0c0.7,0,1.4,0,2.1,0c0.7,0,1.4,0,2.1-0.1c0.7,0,1.5,0,2.4,0c0.6,0,1.1,0,1.6-0.1c0.5,0,0.9-0.1,1.3-0.3
					c0.3-0.3,0.5-0.6,0.6-0.9c0.1-0.3,0.2-0.7,0.2-1.2C22.1,67.2,21.6,66,20.6,65z"/>
				<path class="st5" d="M50.6,90.6h-0.3v-5.8h-0.1c-1.1,1.9-2.4,3.4-4,4.3c-1.5,0.9-3.4,1.4-5.7,1.4c-1.4,0-2.8-0.3-4.1-0.8
					c-1.3-0.6-2.5-1.4-3.6-2.6c-1-1.2-1.9-2.6-2.5-4.3c-0.6-1.7-0.9-3.7-0.9-5.9c0-2,0.4-3.9,1.1-5.6c0.7-1.7,1.7-3.2,3-4.5
					c1.3-1.3,2.8-2.3,4.7-3c1.8-0.7,3.8-1.1,6-1.1c1.2,0,2.2,0.1,3.3,0.3c1,0.2,2,0.4,2.8,0.7c0-0.6-0.1-1.4-0.1-2.4c0-1,0-2,0-3.1
					c0-1,0-2,0-2.9c0-0.9,0-1.6,0-2l-4.7-1.8v-0.3l9.2-2.5h0.5v37.5c0.3,0.2,0.9,0.5,1.7,0.8c0.8,0.3,1.6,0.7,2.4,1v0.4L50.6,90.6z
					 M50.2,68.8C49.4,67.2,48.3,66,47,65c-1.3-1-2.5-1.4-3.6-1.4c-1.5,0-2.8,0.3-3.8,1c-1.1,0.7-1.9,1.6-2.6,2.8
					c-0.7,1.2-1.2,2.5-1.5,4c-0.3,1.5-0.5,3-0.5,4.6c0,1.6,0.2,3.1,0.6,4.6c0.4,1.5,1,2.8,1.7,3.9c0.8,1.1,1.7,2.1,2.9,2.7
					c1.1,0.7,2.5,1,4,1c1.6,0,2.9-0.5,4.1-1.6c1.1-1.1,1.9-2.4,2.2-4.1V68.8z"/>
				<path class="st5" d="M93.8,90.4v-0.6c1-0.1,1.8-0.2,2.4-0.4c0.5-0.2,0.8-0.6,0.8-1.2V73.4c0-2.2-0.4-4-1.2-5.4
					c-0.8-1.3-2.2-2-4.2-2c-1.3,0-2.3,0.3-3.2,1c-0.9,0.7-1.7,1.5-2.7,2.6v18.7c0,0.3,0.1,0.5,0.3,0.7c0.2,0.2,0.4,0.3,0.8,0.4
					c0.3,0.1,0.6,0.2,1,0.2c0.4,0.1,0.7,0.1,1.1,0.1v0.5H77.5v-0.6c1-0.1,1.9-0.2,2.5-0.4c0.6-0.2,0.9-0.6,0.9-1.2V73.4
					c0-2.3-0.4-4.1-1.2-5.4c-0.8-1.3-2.2-1.9-4.2-1.9c-1.3,0-2.3,0.3-3.1,0.8c-0.8,0.5-1.7,1.4-2.7,2.4v19c0.1,0.4,0.2,0.7,0.4,0.8
					c0.2,0.2,0.4,0.3,0.7,0.4c0.3,0.1,0.6,0.1,1,0.1c0.3,0,0.7,0.1,1.1,0.1v0.6H61.6v-0.6c0.9-0.1,1.6-0.3,2.3-0.5
					c0.6-0.3,1-0.7,1-1.3V68.2c0-0.3,0-0.5-0.1-0.7c-0.1-0.2-0.2-0.3-0.5-0.5c-0.3-0.2-0.8-0.4-1.2-0.7c-0.5-0.2-0.9-0.5-1.4-0.7
					v-0.5l7.6-2.7h0.3v6.2l0.1,0.1c0.4-0.7,0.9-1.4,1.5-2.2c0.6-0.8,1.3-1.4,2.1-2C74.2,64,75,63.5,76,63c0.9-0.4,1.9-0.6,3-0.6
					c1.8,0,3.3,0.6,4.5,1.8c1.1,1.2,1.8,2.8,2.1,4.9h0.2c0.3-0.7,0.8-1.4,1.4-2.2c0.6-0.8,1.3-1.5,2.1-2.2c0.8-0.7,1.7-1.2,2.7-1.6
					c1-0.4,2-0.6,3-0.6c2.2,0,3.9,0.8,5.1,2.4c1.1,1.6,1.7,3.7,1.7,6.2v17.2c0,0.3,0.1,0.5,0.3,0.7c0.2,0.2,0.5,0.3,0.8,0.4
					c0.3,0.1,0.7,0.2,1.1,0.2c0.4,0.1,0.8,0.1,1.1,0.1v0.5H93.8z"/>
				<path class="st5" d="M132.3,86.9c-0.3,0.7-0.7,1.3-1.2,1.9c-0.5,0.6-1.1,1-1.8,1.3c-0.7,0.3-1.4,0.4-2.2,0.4
					c-1.3,0-2.5-0.4-3.5-1.2c-1-0.8-1.5-2.1-1.5-4l-0.1-0.1c-0.3,0.5-0.7,1.1-1.2,1.7c-0.5,0.6-1.1,1.2-1.9,1.7
					c-0.7,0.5-1.5,1-2.4,1.3c-0.9,0.3-1.8,0.5-2.9,0.5c-0.6,0-1.2-0.1-1.9-0.3c-0.6-0.2-1.2-0.5-1.7-0.9c-0.5-0.4-0.9-1-1.3-1.7
					c-0.3-0.7-0.5-1.5-0.5-2.5c0-1.1,0.4-2.1,1.3-3.1c0.9-1,1.9-1.9,3.2-2.7c1.3-0.8,2.4-1.5,3.4-2.1c1-0.6,1.8-1.1,2.6-1.5
					c0.7-0.4,1.4-0.8,1.9-1c0.6-0.3,1-0.5,1.4-0.8v-6c0-0.1-0.1-0.3-0.2-0.5s-0.4-0.6-0.7-0.9c-0.3-0.3-0.8-0.6-1.4-0.8
					c-0.6-0.3-1.3-0.4-2.3-0.4c-0.6,0-1.2,0.1-1.8,0.3c-0.6,0.2-1.1,0.5-1.6,0.8c-0.5,0.3-0.8,0.7-1.1,1c-0.3,0.3-0.4,0.6-0.4,0.8
					v2.6c0,0.5-0.3,1-0.8,1.4c-0.6,0.4-1.2,0.6-1.8,0.6c-0.6,0-1.1-0.2-1.6-0.7c-0.4-0.4-0.7-1-0.7-1.5c0-0.5,0.1-0.9,0.3-1.3
					c0.2-0.4,0.5-0.7,0.9-1c0.3-0.3,0.7-0.6,1.1-0.8c0.4-0.2,0.8-0.4,1.1-0.6c1-0.6,2-1.1,3.1-1.7c1-0.5,2-1,3-1.4
					c0.9-0.4,1.8-0.7,2.6-0.9c0.8-0.2,1.4-0.3,1.9-0.3c1,0,1.9,0.3,2.8,0.8c0.9,0.5,1.5,1.2,1.9,1.9c0.2,0.3,0.3,0.7,0.3,1.4
					c0,0.7,0.1,1.3,0.1,2c0,1.4,0,2.6,0,3.8c0,1.1,0,2.2,0,3.2c0,1,0,2.1,0,3.2c0,1.1,0,2.3,0,3.6c0,1.7,0.3,2.9,0.9,3.4
					c0.6,0.6,1.3,0.8,2.1,0.8c0.9,0,1.5-0.2,2-0.5c0.4-0.4,0.7-0.8,0.9-1.4h0.3C132.7,85.4,132.6,86.2,132.3,86.9z M122,74.6
					c-0.7,0.5-1.6,1-2.6,1.6c-1,0.6-2.1,1.2-3,1.8c-1,0.7-1.8,1.4-2.5,2.2c-0.7,0.8-1.1,1.7-1.1,2.7s0.3,1.9,1,2.7s1.6,1.2,2.7,1.2
					c1,0,1.9-0.1,2.7-0.3c0.8-0.2,1.5-0.7,2.1-1.3c0.5-0.4,0.7-1,0.7-1.6V74.6z"/>
				<path class="st5" d="M149.6,90.4v-0.6c1-0.1,1.9-0.2,2.5-0.4c0.6-0.2,0.9-0.6,0.9-1.2V73.6c0-2.2-0.4-4-1.3-5.4
					c-0.8-1.4-2.3-2.1-4.3-2.1c-1.3,0-2.3,0.3-3.2,0.8c-0.8,0.5-1.8,1.3-2.8,2.4v19c0.1,0.4,0.2,0.7,0.4,0.8
					c0.2,0.2,0.4,0.3,0.7,0.4c0.3,0.1,0.6,0.1,0.9,0.1c0.3,0,0.7,0.1,1.1,0.1v0.6h-11.2v-0.6c0.9-0.1,1.6-0.3,2.3-0.5
					c0.6-0.3,1-0.7,1-1.3V68.1c0-0.3,0-0.5-0.1-0.7c-0.1-0.2-0.2-0.3-0.5-0.5c-0.3-0.2-0.8-0.4-1.2-0.7s-0.9-0.5-1.4-0.7v-0.3
					l7.6-2.7h0.3v6.2l0.1,0.1c0.4-0.7,1-1.4,1.6-2.1s1.4-1.4,2.2-2.1c0.8-0.6,1.7-1.1,2.7-1.5c1-0.4,2-0.6,3-0.6
					c2.2,0,3.9,0.8,5.1,2.5c1.2,1.7,1.8,3.8,1.8,6.4v17c0,0.3,0.1,0.5,0.4,0.7c0.3,0.2,0.5,0.3,0.9,0.4c0.3,0.1,0.7,0.2,1.1,0.2
					c0.4,0.1,0.8,0.1,1.1,0.1v0.5H149.6z"/>
				<path class="st5" d="M182.4,85.8c-0.6,1.1-1.4,2-2.4,2.7c-1,0.7-2.2,1.2-3.4,1.5c-1.3,0.3-2.7,0.5-4.1,0.5
					c-1.7,0-3.3-0.2-4.8-0.5s-2.9-0.8-4.2-1.3v-7.6h0.5c0.3,0.9,0.7,1.9,1.2,2.9c0.5,1,1,2,1.7,2.8c0.7,0.9,1.4,1.6,2.4,2.1
					s2,0.8,3.3,0.8c1.8,0,3.3-0.5,4.4-1.6c1.1-1.1,1.6-2.7,1.6-4.9c0-1.2-0.4-2.2-1.1-3c-0.7-0.8-1.8-1.3-3.1-1.6
					c-1-0.2-2-0.4-3-0.6s-1.8-0.5-2.6-0.8c-1.5-0.5-2.6-1.4-3.5-2.6c-0.9-1.2-1.4-2.7-1.4-4.5c0-1.2,0.2-2.3,0.8-3.2
					c0.5-1,1.2-1.8,2-2.5s1.8-1.2,3-1.6c1.1-0.4,2.3-0.5,3.6-0.5c1.6,0,3,0.1,4.3,0.4c1.2,0.3,2.4,0.6,3.5,1.1l0.7,7.2l-0.5,0.1
					c-0.5-1.2-1.1-2.2-1.6-3.2c-0.5-1-1.1-1.8-1.8-2.5c-0.7-0.7-1.4-1.3-2.2-1.6c-0.8-0.4-1.8-0.6-2.9-0.6c-0.7,0-1.3,0.1-1.9,0.3
					c-0.6,0.2-1.2,0.6-1.7,1s-0.9,1-1.2,1.7c-0.3,0.7-0.5,1.5-0.5,2.3c0,1.4,0.4,2.4,1.2,3.1c0.8,0.6,1.8,1.1,3.1,1.4
					c0.8,0.2,1.8,0.4,2.8,0.6c1,0.2,1.9,0.4,2.6,0.6c1.7,0.4,3.2,1.3,4.4,2.7c1.2,1.4,1.8,3,1.8,5C183.3,83.4,183,84.7,182.4,85.8z"
					/>
			</g>
			<g class="st4">
			</g>
			<g>
				<g class="st4">
					<path class="st5" d="M246.8,85.4c-0.7,1-1.5,1.9-2.5,2.7c-1,0.8-2.1,1.4-3.4,1.8c-1.3,0.4-2.6,0.6-4.1,0.6
						c-1.9,0-3.6-0.4-5.1-1.1c-1.6-0.7-2.9-1.7-4-3c-1.1-1.3-2-2.8-2.6-4.5c-0.6-1.7-1-3.6-1-5.6c0-1.9,0.3-3.6,1-5.3
						c0.7-1.7,1.6-3.2,2.7-4.4c1.2-1.3,2.5-2.3,4.1-3.1c1.6-0.8,3.3-1.2,5.2-1.2c1.3,0,2.5,0.2,3.8,0.5c1.2,0.3,2.3,0.8,3.3,1.3
						c1,0.6,1.7,1.3,2.3,2.1c0.6,0.8,0.9,1.8,0.9,3c0,0.8-0.3,1.5-0.9,2.1c-0.6,0.6-1.3,0.9-2.1,0.9c-0.7,0-1.2-0.2-1.8-0.6
						s-0.9-0.9-1-1.4c0.2-0.5,0.3-1.2,0.3-2c0-1.4-0.4-2.6-1.1-3.6c-0.8-0.9-1.9-1.4-3.6-1.4c-1.2,0-2.3,0.3-3.3,0.9
						c-1,0.6-1.9,1.4-2.6,2.5c-0.7,1-1.3,2.3-1.7,3.6c-0.4,1.4-0.6,2.9-0.6,4.5c0,1.7,0.2,3.3,0.7,4.8s1.1,2.7,2,3.7
						c0.8,1,1.9,1.8,3.1,2.4c1.2,0.6,2.6,0.8,4.1,0.8c2.4,0,4.3-0.4,5.7-1.2c1.4-0.8,2.5-2,3.5-3.5l0.5,0.2
						C248.1,83.3,247.5,84.4,246.8,85.4z"/>
					<path class="st5" d="M275.2,81.8c-0.7,1.8-1.7,3.3-3,4.6c-1.2,1.3-2.7,2.3-4.3,3.1c-1.6,0.7-3.4,1.1-5.2,1.1
						c-1.5,0-3.1-0.3-4.7-0.8c-1.6-0.5-3.1-1.4-4.5-2.6c-1.4-1.2-2.5-2.7-3.4-4.5c-0.9-1.8-1.3-4-1.3-6.5c0-1.8,0.3-3.5,1-5.1
						c0.7-1.7,1.6-3.1,2.8-4.4c1.2-1.3,2.7-2.3,4.4-3.1c1.7-0.8,3.6-1.2,5.7-1.2c1.5,0,3.1,0.3,4.7,0.9c1.6,0.6,3,1.4,4.3,2.6
						c1.3,1.1,2.4,2.6,3.2,4.3c0.8,1.7,1.2,3.7,1.2,6C276.3,78.2,276,80,275.2,81.8z M270.5,71.9c-0.3-1.5-0.8-2.9-1.4-4.2
						s-1.5-2.3-2.6-3.2c-1.1-0.8-2.4-1.2-4-1.2c-1.3,0-2.4,0.4-3.4,1.2c-1,0.8-1.9,1.8-2.6,3c-0.7,1.3-1.3,2.7-1.6,4.2
						c-0.4,1.6-0.5,3.2-0.5,4.8c0,1.8,0.2,3.5,0.5,5c0.3,1.6,0.8,3,1.5,4.2s1.6,2.2,2.7,2.9c1.1,0.7,2.4,1.1,3.9,1.1
						c1.5,0,2.8-0.5,3.8-1.4c1-0.9,1.9-2,2.5-3.4s1.1-2.8,1.4-4.4c0.3-1.6,0.4-3,0.4-4.4C271,74.8,270.8,73.4,270.5,71.9z"/>
				</g>
			</g>
		</g>
		<g class="st4">
			<path class="st0" d="M201.2,64.9c-2.4,0-3.5,1.1-3.5,3.2c0,0.8,0.2,1.7,0.7,2.6s1.4,2.1,2.9,3.6l8.2,8.9c1.2-2.2,1.8-4.5,1.8-6.8
				c0-1-0.2-1.7-0.7-2.1s-1.5-0.7-3.1-0.9l0.2-1.5h9l0.2,1.5l-2.5,0.5c-0.5,0.1-0.8,0.5-0.8,1c-0.1,3.9-1,7.2-2.6,9.9l2.9,3.1
				c0.7,0.7,1.7,1,3.2,1.1l-0.2,1.5h-5.7l-2.5-2.7c-2.2,2-4.8,3.1-8,3.1c-2.6,0-4.6-0.6-6.1-1.9c-1.5-1.3-2.2-2.9-2.2-4.9
				c0-3.8,1.8-6.4,5.5-8c-2.2-2.3-3.2-4.5-3.2-6.6s0.7-3.7,2-4.9s3.2-1.8,5.4-1.8c1.7,0,3.4,0.3,5.1,1c0,0.2,0,0.8,0,1.8
				c0,1-0.2,2-0.5,3.1l-1.8,0.2c-0.2-2.1-0.5-3.2-0.9-3.5C203.4,65,202.5,64.9,201.2,64.9z M197.8,86.9c1,1.1,2.4,1.6,4.2,1.6
				c1.8,0,3.6-0.7,5.1-2.1l-7.9-8.6c-1.9,1.1-2.8,2.8-2.8,5.2C196.4,84.5,196.9,85.8,197.8,86.9z"/>
		</g>
		<g class="st4">
		</g>
	</g>
</g>
</svg>
